<svg width="180" height="180" viewBox="0 0 180 180" fill="none" xmlns="http://www.w3.org/2000/svg">
  <!-- Background: dark navy rounded square -->
  <rect width="180" height="180" rx="38" fill="#1e293b"/>
  <!-- Shield body -->
  <path d="M90 26L150 54V102C150 136 90 158 90 158C90 158 30 136 30 102V54L90 26Z" fill="#2563eb"/>
  <!-- Shield inner face: slightly darker for depth -->
  <path d="M90 40L138 64V102C138 129 90 148 90 148C90 148 42 129 42 102V64L90 40Z" fill="#1d4ed8"/>
  <!-- Checkmark: white, bold -->
  <path d="M66 99L82 115L116 78" stroke="white" stroke-width="11" stroke-linecap="round" stroke-linejoin="round"/>
  <!-- Chain link accent: blockchain motif at base -->
  <circle cx="73" cy="148" r="5" fill="#60a5fa" opacity="0.85"/>
  <line x1="78" y1="148" x2="86" y2="148" stroke="#60a5fa" stroke-width="3" opacity="0.7"/>
  <circle cx="90" cy="148" r="5" fill="#60a5fa" opacity="0.85"/>
  <line x1="95" y1="148" x2="103" y2="148" stroke="#60a5fa" stroke-width="3" opacity="0.7"/>
  <circle cx="107" cy="148" r="5" fill="#60a5fa" opacity="0.85"/>
</svg>
